<svg xmlns="http://www.w3.org/2000/svg" xmlns:xlink="http://www.w3.org/1999/xlink"><symbol id="checkbox-check"><path fill="#333" d="M21.8 1.3 20.77.23a.84.84 0 0 0-1.14 0L8.3 11.96 2.4 5.84a.84.84 0 0 0-1.14 0L.21 6.93c-.28.3-.28.89 0 1.18l7.42 7.7c.2.19.38.19.57.19.2 0 .38-.1.57-.2L21.61 2.5c.48-.3.48-.79.2-1.18Z"/></symbol><symbol id="eat"><path fill="#81B3D2" d="M37.74 25.85H2.26A2.23 2.23 0 0 0 0 28.03v1.77c0 1.17 1 2.13 2.26 2.13h.52v.5a5.12 5.12 0 0 0 5.2 5.02h24.04c2.89 0 5.2-2.28 5.2-5.01v-.51h.52c1.21 0 2.26-.96 2.26-2.18v-1.77c0-1.12-1-2.13-2.26-2.13Zm-2.04 6.59c0 1.92-1.63 3.49-3.63 3.49H7.93c-2 0-3.63-1.57-3.63-3.5v-.5h31.4v.5Zm2.73-2.69c0 .36-.32.66-.69.66H2.26a.68.68 0 0 1-.69-.66v-1.77c0-.3.32-.61.69-.61H37.8c.36 0 .68.3.68.66v1.72h-.05Zm-29.93-8 2.84 2.02 2.89-2.02 2.88 2.02L20 21.75l2.83 2.02 2.9-2.02 2.88 2.02 2.89-2.02 2.88 2.02 3.31-2.38-.9-1.21-2.4 1.67-2.9-2.03-2.88 2.03-2.89-2.03-2.89 2.03L20 19.82l-2.89 2.03-2.88-2.03-2.9 2.03-2.83-2.03-2.88 2.03-2.42-1.67-.94 1.21 3.36 2.38 2.88-2.02Zm28.72-3.45c0-.3.05-1.31 0-1.52C36.85 8.88 29.29 2.55 20 2.55c-9.3 0-16.9 6.33-17.27 14.23v1.52h34.49ZM20 4.07c8.4 0 15.33 5.67 15.64 12.71H4.3C4.67 9.74 11.6 4.07 20 4.07Z"/><path fill="#81B3D2" d="M20 11.16c.58 0 1.05-.45 1.05-1.01S20.58 9.14 20 9.14c-.58 0-1.05.45-1.05 1 0 .57.47 1.02 1.05 1.02Zm-4.2-2.48c.58 0 1.05-.45 1.05-1.01s-.47-1.02-1.05-1.02c-.58 0-1.05.46-1.05 1.02s.47 1 1.05 1Zm8.4 0c.58 0 1.05-.45 1.05-1.01s-.47-1.02-1.05-1.02c-.58 0-1.05.46-1.05 1.02s.47 1 1.05 1Z"/></symbol><symbol id="email"><path fill="#000" d="M8 8c-.3 0-.5-.1-1-.3L0 4v7c0 .5.5 1 1 1h14c.5 0 1-.5 1-1V4L9 7.7c-.5.2-.7.3-1 .3Zm7-8H1C.5 0 0 .5 0 1v.8L8 6l8-4.2V1c0-.5-.5-1-1-1Z"/></symbol><symbol id="gift"><path fill="#81B3D2" d="M34.58 12.2h-12.4c6.91-3.44 7.47-5.62 7.22-6.83-.56-1.98-2.85-3.5-4.98-2.69-2.8 1.07-3.56 5.22-4.32 8.2-.96-3.03-1.88-6.88-4.06-8.85A3.7 3.7 0 0 0 13.14 1c-2.03.2-4.92 2.69-3.7 5.47 1.11 2.69 4.82 4.4 7.3 5.78H5.43c-.81 0-1.42.65-1.42 1.41v5.68c0 .8.66 1.42 1.42 1.42h.15V39h28.96V20.77h.05c.81 0 1.42-.66 1.42-1.42v-5.68c0-.8-.66-1.46-1.42-1.46Zm-9.35-8.25c1.07-.15 2.5.66 2.64 1.62.2 1.37-1.67 2.63-2.54 3.2-1.27.85-2.49 1.3-3.65 2.02.4-1.88 1.27-6.54 3.55-6.84ZM13.75 8.91c-1.12-.76-3.25-2.23-3.2-3.9.05-1.82 2.9-3.29 4.42-1.92 1.93 1.67 2.85 5.57 3.56 8.3-1.63-.8-3.15-1.41-4.78-2.48Zm3 28.57h-9.7V20.77h9.7v16.71Zm0-18.23H5.52v-5.52h11.23v5.52Zm5.08 18.23h-3.6V13.73h3.6v23.75Zm11.17 0h-9.65V20.77h9.7v16.71H33Zm1.48-18.23H23.35v-5.52h11.13v5.52Z"/></symbol><symbol id="house"><path fill="#81B3D2" d="M15.9 34.8h8.35V22.65H15.9V34.8Zm6.84-1.47h-5.32v-9.2h5.27v9.2h.05Z"/><path fill="#81B3D2" d="m38.4 21.63 1.1-1.07-5.17-5.04V1.8h-7.2v6.7l-7.16-6.92L.5 20.61l1.1 1.07 4.07-3.97v19.23H3.63v1.48H37v-1.48h-2.66V17.66l4.07 3.97ZM28.64 3.3h4.13v10.74l-4.13-4.02V3.3Zm4.18 33.58H7.23v-20.7L19.97 3.71l12.8 12.46v20.7h.05Z"/><path fill="#81B3D2" d="M16.06 15.42a4.01 4.01 0 0 0 4.02 3.97 4.03 4.03 0 0 0 4.07-3.97 3.98 3.98 0 0 0-4.07-3.92 3.94 3.94 0 0 0-4.02 3.92Zm4.02-2.54a2.59 2.59 0 0 1 2.6 2.54 2.58 2.58 0 0 1-2.6 2.55 2.59 2.59 0 0 1-2.61-2.55c0-1.37 1.2-2.54 2.6-2.54Zm-9.19 9.77H9.32v1.98h1.57v-1.98Zm3.08 0H12.4v1.98h1.57v-1.98Zm-3.08 3.05H9.32v1.98h1.57V25.7Zm3.08 0H12.4v1.98h1.57V25.7Zm13.57-3.05h-1.56v1.98h1.56v-1.98Zm3.14 0H29.1v1.98h1.57v-1.98Zm-3.14 3.05h-1.56v1.98h1.56V25.7Zm3.14 0H29.1v1.98h1.57V25.7Z"/></symbol><symbol id="like-white"><path fill="#fff" d="m12.96 3.78-.62 3.05-.63 2.62h9.09v2.2l-3.03 7.25h-9.4V8.4l4.6-4.62ZM2.1 10.5v8.4-8.4ZM13.8 0 6.9 6.93c-.42.32-.63.84-.63 1.47v10.5c0 1.16.94 2.1 2.1 2.1h9.4c.84 0 1.57-.52 1.88-1.26l3.14-7.45c.1-.21.1-.53.1-.74v-2.1H23a2.1 2.1 0 0 0-2.1-2.1h-6.58l1.05-4.83v-.31c0-.43-.21-.84-.42-1.16L13.8 0ZM4.18 8.4H0V21h4.18V8.4Z"/></symbol><symbol id="like"><path fill="#000" d="m12.96 3.78-.62 3.05-.63 2.62h9.09v2.2l-3.03 7.25h-9.4V8.4l4.6-4.62ZM2.1 10.5v8.4-8.4ZM13.8 0 6.9 6.93c-.42.32-.63.84-.63 1.47v10.5c0 1.16.94 2.1 2.1 2.1h9.4c.84 0 1.57-.52 1.88-1.26l3.14-7.45c.1-.21.1-.53.1-.74v-2.1H23a2.1 2.1 0 0 0-2.1-2.1h-6.58l1.05-4.83v-.31c0-.43-.21-.84-.42-1.16L13.8 0ZM4.18 8.4H0V21h4.18V8.4Z" opacity=".3"/></symbol><symbol id="phone"><path fill="#010101" d="M3.6 7.8c1.4 2.8 3.8 5.1 6.6 6.6l2.2-2.2c.3-.3.7-.4 1-.2 1.1.4 2.3.6 3.6.6.6 0 1 .4 1 1V17c0 .6-.4 1-1 1C7.6 18 0 10.4 0 1c0-.6.4-1 1-1h3.5c.6 0 1 .4 1 1 0 1.2.2 2.4.6 3.6.1.3 0 .7-.2 1L3.6 7.8Z"/></symbol><symbol id="radio-check"><path fill="#333" fill-rule="evenodd" d="M8 0a8 8 0 1 1 0 16A8 8 0 0 1 8 0Z" clip-rule="evenodd"/></symbol></svg>